<?xml version="1.0" standalone="no"?><svg xmlns="http://www.w3.org/2000/svg" viewBox="0 0 1440 320"><path fill="#0099ff" fill-opacity="1" d="M0,192L30,176C60,160,120,128,180,106.7C240,85,300,75,360,85.3C420,96,480,128,540,128C600,128,660,96,720,85.3C780,75,840,85,900,106.7C960,128,1020,160,1080,144C1140,128,1200,64,1260,37.3C1320,11,1380,21,1410,26.7L1440,32L1440,320L1410,320C1380,320,1320,320,1260,320C1200,320,1140,320,1080,320C1020,320,960,320,900,320C840,320,780,320,720,320C660,320,600,320,540,320C480,320,420,320,360,320C300,320,240,320,180,320C120,320,60,320,30,320L0,320Z"></path></svg>